<mxfile host="65bd71144e">
    <diagram id="NSaubK4UfN1yJbrvGiAY" name="Docker">
        <mxGraphModel dx="1042" dy="790" grid="1" gridSize="10" guides="1" tooltips="1" connect="1" arrows="1" fold="1" page="1" pageScale="1" pageWidth="850" pageHeight="1100" math="0" shadow="0">
            <root>
                <mxCell id="0"/>
                <mxCell id="1" parent="0"/>
                <mxCell id="19" value="Server" style="points=[[0,0],[0.25,0],[0.5,0],[0.75,0],[1,0],[1,0.25],[1,0.5],[1,0.75],[1,1],[0.75,1],[0.5,1],[0.25,1],[0,1],[0,0.75],[0,0.5],[0,0.25]];outlineConnect=0;html=1;whiteSpace=wrap;fontSize=12;fontStyle=0;container=1;pointerEvents=0;collapsible=0;recursiveResize=0;shape=mxgraph.aws4.group;grIcon=mxgraph.aws4.group_on_premise;verticalAlign=top;align=left;spacingLeft=30;dashed=0;" vertex="1" parent="1">
                    <mxGeometry x="100" y="100" width="380" height="260" as="geometry"/>
                </mxCell>
                <mxCell id="3" value="api-container:1.0" style="shape=ext;double=1;rounded=0;whiteSpace=wrap;html=1;fillColor=#fff2cc;strokeColor=#d6b656;" parent="1" vertex="1">
                    <mxGeometry x="220" y="200" width="120" height="80" as="geometry"/>
                </mxCell>
                <mxCell id="4" value="80" style="shape=ext;double=1;rounded=0;whiteSpace=wrap;html=1;" parent="1" vertex="1">
                    <mxGeometry x="255" y="200" width="50" height="20" as="geometry"/>
                </mxCell>
                <mxCell id="5" value="30080" style="shape=ext;double=1;rounded=0;whiteSpace=wrap;html=1;" parent="1" vertex="1">
                    <mxGeometry x="255" y="180" width="50" height="20" as="geometry"/>
                </mxCell>
            </root>
        </mxGraphModel>
    </diagram>
    <diagram id="blmSOt3sIgLUkY57dsF-" name="Pod">
        <mxGraphModel dx="1042" dy="790" grid="1" gridSize="10" guides="1" tooltips="1" connect="1" arrows="1" fold="1" page="1" pageScale="1" pageWidth="850" pageHeight="1100" math="0" shadow="0">
            <root>
                <mxCell id="M8065auONBppAOuS-kGA-0"/>
                <mxCell id="M8065auONBppAOuS-kGA-1" parent="M8065auONBppAOuS-kGA-0"/>
                <mxCell id="M8065auONBppAOuS-kGA-5" value="Server" style="points=[[0,0],[0.25,0],[0.5,0],[0.75,0],[1,0],[1,0.25],[1,0.5],[1,0.75],[1,1],[0.75,1],[0.5,1],[0.25,1],[0,1],[0,0.75],[0,0.5],[0,0.25]];outlineConnect=0;html=1;whiteSpace=wrap;fontSize=12;fontStyle=0;container=1;pointerEvents=0;collapsible=0;recursiveResize=0;shape=mxgraph.aws4.group;grIcon=mxgraph.aws4.group_on_premise;verticalAlign=top;align=left;spacingLeft=30;dashed=0;" vertex="1" parent="M8065auONBppAOuS-kGA-1">
                    <mxGeometry x="100" y="100" width="380" height="260" as="geometry"/>
                </mxCell>
                <mxCell id="M8065auONBppAOuS-kGA-9" value="" style="group" vertex="1" connectable="0" parent="M8065auONBppAOuS-kGA-5">
                    <mxGeometry x="70" y="70" width="230" height="147.5" as="geometry"/>
                </mxCell>
                <mxCell id="M8065auONBppAOuS-kGA-7" value="Pod" style="fillColor=none;strokeColor=#5A6C86;dashed=1;verticalAlign=top;fontStyle=0;fontColor=#5A6C86;" vertex="1" parent="M8065auONBppAOuS-kGA-9">
                    <mxGeometry width="230" height="147.5" as="geometry"/>
                </mxCell>
                <mxCell id="M8065auONBppAOuS-kGA-6" value="" style="sketch=0;html=1;dashed=0;whitespace=wrap;fillColor=#2875E2;strokeColor=#ffffff;points=[[0.005,0.63,0],[0.1,0.2,0],[0.9,0.2,0],[0.5,0,0],[0.995,0.63,0],[0.72,0.99,0],[0.5,1,0],[0.28,0.99,0]];shape=mxgraph.kubernetes.icon;prIcon=pod" vertex="1" parent="M8065auONBppAOuS-kGA-9">
                    <mxGeometry width="40" height="27.5" as="geometry"/>
                </mxCell>
                <mxCell id="M8065auONBppAOuS-kGA-2" value="api-container:1.0" style="shape=ext;double=1;rounded=0;whiteSpace=wrap;html=1;fillColor=#fff2cc;strokeColor=#d6b656;" vertex="1" parent="M8065auONBppAOuS-kGA-1">
                    <mxGeometry x="220" y="200" width="120" height="80" as="geometry"/>
                </mxCell>
                <mxCell id="M8065auONBppAOuS-kGA-3" value="80" style="shape=ext;double=1;rounded=0;whiteSpace=wrap;html=1;" vertex="1" parent="M8065auONBppAOuS-kGA-1">
                    <mxGeometry x="255" y="200" width="50" height="20" as="geometry"/>
                </mxCell>
            </root>
        </mxGraphModel>
    </diagram>
    <diagram id="q9laSUW7ya-NFzbh8m1Q" name="Deployment:Scaling">
        <mxGraphModel dx="1097" dy="832" grid="1" gridSize="10" guides="1" tooltips="1" connect="1" arrows="1" fold="1" page="1" pageScale="1" pageWidth="850" pageHeight="1100" math="0" shadow="0">
            <root>
                <mxCell id="ZMehQvKAvTLzNrr56DHP-0"/>
                <mxCell id="ZMehQvKAvTLzNrr56DHP-1" parent="ZMehQvKAvTLzNrr56DHP-0"/>
                <mxCell id="tfpa5w0odoIp9jrhFT6v-2" value="Server" style="points=[[0,0],[0.25,0],[0.5,0],[0.75,0],[1,0],[1,0.25],[1,0.5],[1,0.75],[1,1],[0.75,1],[0.5,1],[0.25,1],[0,1],[0,0.75],[0,0.5],[0,0.25]];outlineConnect=0;html=1;whiteSpace=wrap;fontSize=12;fontStyle=0;container=1;pointerEvents=0;collapsible=0;recursiveResize=0;shape=mxgraph.aws4.group;grIcon=mxgraph.aws4.group_on_premise;verticalAlign=top;align=left;spacingLeft=30;dashed=0;" vertex="1" parent="ZMehQvKAvTLzNrr56DHP-1">
                    <mxGeometry x="100" y="100" width="580" height="470" as="geometry"/>
                </mxCell>
                <mxCell id="tfpa5w0odoIp9jrhFT6v-0" value="api-container:1.0" style="shape=ext;double=1;rounded=0;whiteSpace=wrap;html=1;fillColor=#fff2cc;strokeColor=#d6b656;" vertex="1" parent="tfpa5w0odoIp9jrhFT6v-2">
                    <mxGeometry x="122.5" y="115" width="120" height="80" as="geometry"/>
                </mxCell>
                <mxCell id="tfpa5w0odoIp9jrhFT6v-1" value="80" style="shape=ext;double=1;rounded=0;whiteSpace=wrap;html=1;" vertex="1" parent="tfpa5w0odoIp9jrhFT6v-2">
                    <mxGeometry x="157.5" y="115" width="50" height="20" as="geometry"/>
                </mxCell>
                <mxCell id="tfpa5w0odoIp9jrhFT6v-3" value="" style="group" vertex="1" connectable="0" parent="tfpa5w0odoIp9jrhFT6v-2">
                    <mxGeometry x="87.5" y="85" width="440" height="340" as="geometry"/>
                </mxCell>
                <mxCell id="tfpa5w0odoIp9jrhFT6v-4" value="Pod" style="fillColor=none;strokeColor=#5A6C86;dashed=1;verticalAlign=top;fontStyle=0;fontColor=#5A6C86;" vertex="1" parent="tfpa5w0odoIp9jrhFT6v-3">
                    <mxGeometry width="190" height="140" as="geometry"/>
                </mxCell>
                <mxCell id="tfpa5w0odoIp9jrhFT6v-5" value="" style="sketch=0;html=1;dashed=0;whitespace=wrap;fillColor=#2875E2;strokeColor=#ffffff;points=[[0.005,0.63,0],[0.1,0.2,0],[0.9,0.2,0],[0.5,0,0],[0.995,0.63,0],[0.72,0.99,0],[0.5,1,0],[0.28,0.99,0]];shape=mxgraph.kubernetes.icon;prIcon=pod" vertex="1" parent="tfpa5w0odoIp9jrhFT6v-3">
                    <mxGeometry width="33.04347826086956" height="26.10169491525424" as="geometry"/>
                </mxCell>
                <mxCell id="tfpa5w0odoIp9jrhFT6v-7" value="Deployment" style="fillColor=none;strokeColor=#5A6C86;dashed=1;verticalAlign=top;fontStyle=1;fontColor=#5A6C86;" vertex="1" parent="tfpa5w0odoIp9jrhFT6v-3">
                    <mxGeometry x="-35" y="-40" width="475" height="380" as="geometry"/>
                </mxCell>
                <mxCell id="tfpa5w0odoIp9jrhFT6v-6" value="" style="sketch=0;aspect=fixed;html=1;points=[];align=center;image;fontSize=12;image=img/lib/mscae/Kubernetes.svg;" vertex="1" parent="tfpa5w0odoIp9jrhFT6v-3">
                    <mxGeometry x="-35" y="-40" width="31.25" height="30" as="geometry"/>
                </mxCell>
                <mxCell id="tfpa5w0odoIp9jrhFT6v-14" value="api-container:1.0" style="shape=ext;double=1;rounded=0;whiteSpace=wrap;html=1;fillColor=#fff2cc;strokeColor=#d6b656;" vertex="1" parent="tfpa5w0odoIp9jrhFT6v-2">
                    <mxGeometry x="337.5" y="115" width="120" height="80" as="geometry"/>
                </mxCell>
                <mxCell id="tfpa5w0odoIp9jrhFT6v-15" value="80" style="shape=ext;double=1;rounded=0;whiteSpace=wrap;html=1;" vertex="1" parent="tfpa5w0odoIp9jrhFT6v-2">
                    <mxGeometry x="372.5" y="115" width="50" height="20" as="geometry"/>
                </mxCell>
                <mxCell id="tfpa5w0odoIp9jrhFT6v-16" value="" style="group" vertex="1" connectable="0" parent="tfpa5w0odoIp9jrhFT6v-2">
                    <mxGeometry x="302.5" y="85" width="190" height="140" as="geometry"/>
                </mxCell>
                <mxCell id="tfpa5w0odoIp9jrhFT6v-17" value="Pod" style="fillColor=none;strokeColor=#5A6C86;dashed=1;verticalAlign=top;fontStyle=0;fontColor=#5A6C86;" vertex="1" parent="tfpa5w0odoIp9jrhFT6v-16">
                    <mxGeometry width="190" height="140" as="geometry"/>
                </mxCell>
                <mxCell id="tfpa5w0odoIp9jrhFT6v-18" value="" style="sketch=0;html=1;dashed=0;whitespace=wrap;fillColor=#2875E2;strokeColor=#ffffff;points=[[0.005,0.63,0],[0.1,0.2,0],[0.9,0.2,0],[0.5,0,0],[0.995,0.63,0],[0.72,0.99,0],[0.5,1,0],[0.28,0.99,0]];shape=mxgraph.kubernetes.icon;prIcon=pod" vertex="1" parent="tfpa5w0odoIp9jrhFT6v-16">
                    <mxGeometry width="33.04347826086956" height="26.10169491525424" as="geometry"/>
                </mxCell>
                <mxCell id="tfpa5w0odoIp9jrhFT6v-19" value="api-container:1.0" style="shape=ext;double=1;rounded=0;whiteSpace=wrap;html=1;fillColor=#fff2cc;strokeColor=#d6b656;" vertex="1" parent="tfpa5w0odoIp9jrhFT6v-2">
                    <mxGeometry x="122.5" y="285" width="120" height="80" as="geometry"/>
                </mxCell>
                <mxCell id="tfpa5w0odoIp9jrhFT6v-20" value="80" style="shape=ext;double=1;rounded=0;whiteSpace=wrap;html=1;" vertex="1" parent="tfpa5w0odoIp9jrhFT6v-2">
                    <mxGeometry x="157.5" y="285" width="50" height="20" as="geometry"/>
                </mxCell>
                <mxCell id="tfpa5w0odoIp9jrhFT6v-21" value="" style="group" vertex="1" connectable="0" parent="tfpa5w0odoIp9jrhFT6v-2">
                    <mxGeometry x="87.5" y="255" width="190" height="140" as="geometry"/>
                </mxCell>
                <mxCell id="tfpa5w0odoIp9jrhFT6v-22" value="Pod" style="fillColor=none;strokeColor=#5A6C86;dashed=1;verticalAlign=top;fontStyle=0;fontColor=#5A6C86;" vertex="1" parent="tfpa5w0odoIp9jrhFT6v-21">
                    <mxGeometry width="190" height="140" as="geometry"/>
                </mxCell>
                <mxCell id="tfpa5w0odoIp9jrhFT6v-23" value="" style="sketch=0;html=1;dashed=0;whitespace=wrap;fillColor=#2875E2;strokeColor=#ffffff;points=[[0.005,0.63,0],[0.1,0.2,0],[0.9,0.2,0],[0.5,0,0],[0.995,0.63,0],[0.72,0.99,0],[0.5,1,0],[0.28,0.99,0]];shape=mxgraph.kubernetes.icon;prIcon=pod" vertex="1" parent="tfpa5w0odoIp9jrhFT6v-21">
                    <mxGeometry width="33.04347826086956" height="26.10169491525424" as="geometry"/>
                </mxCell>
                <mxCell id="tfpa5w0odoIp9jrhFT6v-24" value="api-container:1.0" style="shape=ext;double=1;rounded=0;whiteSpace=wrap;html=1;fillColor=#fff2cc;strokeColor=#d6b656;" vertex="1" parent="tfpa5w0odoIp9jrhFT6v-2">
                    <mxGeometry x="337.5" y="285" width="120" height="80" as="geometry"/>
                </mxCell>
                <mxCell id="tfpa5w0odoIp9jrhFT6v-25" value="80" style="shape=ext;double=1;rounded=0;whiteSpace=wrap;html=1;" vertex="1" parent="tfpa5w0odoIp9jrhFT6v-2">
                    <mxGeometry x="372.5" y="285" width="50" height="20" as="geometry"/>
                </mxCell>
                <mxCell id="tfpa5w0odoIp9jrhFT6v-26" value="" style="group" vertex="1" connectable="0" parent="tfpa5w0odoIp9jrhFT6v-2">
                    <mxGeometry x="302.5" y="255" width="190" height="140" as="geometry"/>
                </mxCell>
                <mxCell id="tfpa5w0odoIp9jrhFT6v-27" value="Pod" style="fillColor=none;strokeColor=#5A6C86;dashed=1;verticalAlign=top;fontStyle=0;fontColor=#5A6C86;" vertex="1" parent="tfpa5w0odoIp9jrhFT6v-26">
                    <mxGeometry width="190" height="140" as="geometry"/>
                </mxCell>
                <mxCell id="tfpa5w0odoIp9jrhFT6v-28" value="" style="sketch=0;html=1;dashed=0;whitespace=wrap;fillColor=#2875E2;strokeColor=#ffffff;points=[[0.005,0.63,0],[0.1,0.2,0],[0.9,0.2,0],[0.5,0,0],[0.995,0.63,0],[0.72,0.99,0],[0.5,1,0],[0.28,0.99,0]];shape=mxgraph.kubernetes.icon;prIcon=pod" vertex="1" parent="tfpa5w0odoIp9jrhFT6v-26">
                    <mxGeometry width="33.04347826086956" height="26.10169491525424" as="geometry"/>
                </mxCell>
            </root>
        </mxGraphModel>
    </diagram>
    <diagram id="L4LAEFupCL6IxKA6SAMR" name="Deployment">
        <mxGraphModel dx="1303" dy="2088" grid="1" gridSize="10" guides="1" tooltips="1" connect="1" arrows="1" fold="1" page="1" pageScale="1" pageWidth="850" pageHeight="1100" math="0" shadow="0">
            <root>
                <mxCell id="cHpmKiyiBaThE0fjxowa-0"/>
                <mxCell id="cHpmKiyiBaThE0fjxowa-1" parent="cHpmKiyiBaThE0fjxowa-0"/>
                <mxCell id="SfLSfAhm1QCCM8m_BgMp-0" value="Server" style="points=[[0,0],[0.25,0],[0.5,0],[0.75,0],[1,0],[1,0.25],[1,0.5],[1,0.75],[1,1],[0.75,1],[0.5,1],[0.25,1],[0,1],[0,0.75],[0,0.5],[0,0.25]];outlineConnect=0;html=1;whiteSpace=wrap;fontSize=12;fontStyle=0;container=1;pointerEvents=0;collapsible=0;recursiveResize=0;shape=mxgraph.aws4.group;grIcon=mxgraph.aws4.group_on_premise;verticalAlign=top;align=left;spacingLeft=30;dashed=0;" vertex="1" parent="cHpmKiyiBaThE0fjxowa-1">
                    <mxGeometry x="100" y="90" width="890" height="470" as="geometry"/>
                </mxCell>
                <mxCell id="mlOKRHt_Zuj5hbEv2DI5-0" value="api-container:1.0" style="shape=ext;double=1;rounded=0;whiteSpace=wrap;html=1;fillColor=#C7C7C7;strokeColor=#666666;fontColor=#333333;" vertex="1" parent="SfLSfAhm1QCCM8m_BgMp-0">
                    <mxGeometry x="390.88" y="120" width="120" height="80" as="geometry"/>
                </mxCell>
                <mxCell id="mlOKRHt_Zuj5hbEv2DI5-1" value="80" style="shape=ext;double=1;rounded=0;whiteSpace=wrap;html=1;" vertex="1" parent="SfLSfAhm1QCCM8m_BgMp-0">
                    <mxGeometry x="425.88" y="120" width="50" height="20" as="geometry"/>
                </mxCell>
                <mxCell id="mlOKRHt_Zuj5hbEv2DI5-2" value="" style="group" vertex="1" connectable="0" parent="SfLSfAhm1QCCM8m_BgMp-0">
                    <mxGeometry x="355.88" y="90" width="190" height="140" as="geometry"/>
                </mxCell>
                <mxCell id="mlOKRHt_Zuj5hbEv2DI5-3" value="Pod" style="fillColor=none;strokeColor=#5A6C86;dashed=1;verticalAlign=top;fontStyle=0;fontColor=#5A6C86;" vertex="1" parent="mlOKRHt_Zuj5hbEv2DI5-2">
                    <mxGeometry width="190" height="140" as="geometry"/>
                </mxCell>
                <mxCell id="mlOKRHt_Zuj5hbEv2DI5-4" value="" style="sketch=0;html=1;dashed=0;whitespace=wrap;fillColor=#2875E2;strokeColor=#ffffff;points=[[0.005,0.63,0],[0.1,0.2,0],[0.9,0.2,0],[0.5,0,0],[0.995,0.63,0],[0.72,0.99,0],[0.5,1,0],[0.28,0.99,0]];shape=mxgraph.kubernetes.icon;prIcon=pod" vertex="1" parent="mlOKRHt_Zuj5hbEv2DI5-2">
                    <mxGeometry width="33.04347826086956" height="26.10169491525424" as="geometry"/>
                </mxCell>
                <mxCell id="mlOKRHt_Zuj5hbEv2DI5-5" value="api-container:1.0" style="shape=ext;double=1;rounded=0;whiteSpace=wrap;html=1;fillColor=#fff2cc;strokeColor=#d6b656;" vertex="1" parent="SfLSfAhm1QCCM8m_BgMp-0">
                    <mxGeometry x="175.88" y="290" width="120" height="80" as="geometry"/>
                </mxCell>
                <mxCell id="mlOKRHt_Zuj5hbEv2DI5-6" value="80" style="shape=ext;double=1;rounded=0;whiteSpace=wrap;html=1;" vertex="1" parent="SfLSfAhm1QCCM8m_BgMp-0">
                    <mxGeometry x="210.88" y="290" width="50" height="20" as="geometry"/>
                </mxCell>
                <mxCell id="mlOKRHt_Zuj5hbEv2DI5-7" value="" style="group" vertex="1" connectable="0" parent="SfLSfAhm1QCCM8m_BgMp-0">
                    <mxGeometry x="140.88" y="260" width="190" height="140" as="geometry"/>
                </mxCell>
                <mxCell id="mlOKRHt_Zuj5hbEv2DI5-8" value="Pod" style="fillColor=none;strokeColor=#5A6C86;dashed=1;verticalAlign=top;fontStyle=0;fontColor=#5A6C86;" vertex="1" parent="mlOKRHt_Zuj5hbEv2DI5-7">
                    <mxGeometry width="190" height="140" as="geometry"/>
                </mxCell>
                <mxCell id="mlOKRHt_Zuj5hbEv2DI5-9" value="" style="sketch=0;html=1;dashed=0;whitespace=wrap;fillColor=#2875E2;strokeColor=#ffffff;points=[[0.005,0.63,0],[0.1,0.2,0],[0.9,0.2,0],[0.5,0,0],[0.995,0.63,0],[0.72,0.99,0],[0.5,1,0],[0.28,0.99,0]];shape=mxgraph.kubernetes.icon;prIcon=pod" vertex="1" parent="mlOKRHt_Zuj5hbEv2DI5-7">
                    <mxGeometry width="33.04347826086956" height="26.10169491525424" as="geometry"/>
                </mxCell>
                <mxCell id="mlOKRHt_Zuj5hbEv2DI5-10" value="" style="sketch=0;aspect=fixed;html=1;points=[];align=center;image;fontSize=12;image=img/lib/mscae/Kubernetes.svg;" vertex="1" parent="SfLSfAhm1QCCM8m_BgMp-0">
                    <mxGeometry x="110.87882352941176" y="40.00432432432433" width="27.87162162162162" height="26.756756756756758" as="geometry"/>
                </mxCell>
                <mxCell id="mlOKRHt_Zuj5hbEv2DI5-11" value="Deployment" style="fillColor=none;strokeColor=#5A6C86;dashed=1;verticalAlign=top;fontStyle=1;fontColor=#5A6C86;" vertex="1" parent="SfLSfAhm1QCCM8m_BgMp-0">
                    <mxGeometry x="100" y="40" width="691.76" height="370" as="geometry"/>
                </mxCell>
                <mxCell id="mlOKRHt_Zuj5hbEv2DI5-12" value="api-container:1.0" style="shape=ext;double=1;rounded=0;whiteSpace=wrap;html=1;fillColor=#fff2cc;strokeColor=#d6b656;" vertex="1" parent="SfLSfAhm1QCCM8m_BgMp-0">
                    <mxGeometry x="175.88" y="120" width="120" height="80" as="geometry"/>
                </mxCell>
                <mxCell id="mlOKRHt_Zuj5hbEv2DI5-13" value="80" style="shape=ext;double=1;rounded=0;whiteSpace=wrap;html=1;" vertex="1" parent="SfLSfAhm1QCCM8m_BgMp-0">
                    <mxGeometry x="210.88" y="120" width="50" height="20" as="geometry"/>
                </mxCell>
                <mxCell id="mlOKRHt_Zuj5hbEv2DI5-14" value="" style="group" vertex="1" connectable="0" parent="SfLSfAhm1QCCM8m_BgMp-0">
                    <mxGeometry x="140.88" y="90" width="190" height="140" as="geometry"/>
                </mxCell>
                <mxCell id="mlOKRHt_Zuj5hbEv2DI5-15" value="Pod" style="fillColor=none;strokeColor=#5A6C86;dashed=1;verticalAlign=top;fontStyle=0;fontColor=#5A6C86;" vertex="1" parent="mlOKRHt_Zuj5hbEv2DI5-14">
                    <mxGeometry width="190" height="140" as="geometry"/>
                </mxCell>
                <mxCell id="mlOKRHt_Zuj5hbEv2DI5-16" value="" style="sketch=0;html=1;dashed=0;whitespace=wrap;fillColor=#2875E2;strokeColor=#ffffff;points=[[0.005,0.63,0],[0.1,0.2,0],[0.9,0.2,0],[0.5,0,0],[0.995,0.63,0],[0.72,0.99,0],[0.5,1,0],[0.28,0.99,0]];shape=mxgraph.kubernetes.icon;prIcon=pod" vertex="1" parent="mlOKRHt_Zuj5hbEv2DI5-14">
                    <mxGeometry width="33.04347826086956" height="26.10169491525424" as="geometry"/>
                </mxCell>
                <mxCell id="mlOKRHt_Zuj5hbEv2DI5-17" value="api-container:2.0" style="shape=ext;double=1;rounded=0;whiteSpace=wrap;html=1;fillColor=#dae8fc;strokeColor=#6c8ebf;" vertex="1" parent="SfLSfAhm1QCCM8m_BgMp-0">
                    <mxGeometry x="605.88" y="120" width="120" height="80" as="geometry"/>
                </mxCell>
                <mxCell id="mlOKRHt_Zuj5hbEv2DI5-18" value="80" style="shape=ext;double=1;rounded=0;whiteSpace=wrap;html=1;" vertex="1" parent="SfLSfAhm1QCCM8m_BgMp-0">
                    <mxGeometry x="640.88" y="120" width="50" height="20" as="geometry"/>
                </mxCell>
                <mxCell id="mlOKRHt_Zuj5hbEv2DI5-19" value="" style="group" vertex="1" connectable="0" parent="SfLSfAhm1QCCM8m_BgMp-0">
                    <mxGeometry x="570.88" y="90" width="190" height="140" as="geometry"/>
                </mxCell>
                <mxCell id="mlOKRHt_Zuj5hbEv2DI5-20" value="" style="sketch=0;html=1;dashed=0;whitespace=wrap;fillColor=#2875E2;strokeColor=#ffffff;points=[[0.005,0.63,0],[0.1,0.2,0],[0.9,0.2,0],[0.5,0,0],[0.995,0.63,0],[0.72,0.99,0],[0.5,1,0],[0.28,0.99,0]];shape=mxgraph.kubernetes.icon;prIcon=pod" vertex="1" parent="mlOKRHt_Zuj5hbEv2DI5-19">
                    <mxGeometry width="33.04347826086956" height="26.10169491525424" as="geometry"/>
                </mxCell>
                <mxCell id="mlOKRHt_Zuj5hbEv2DI5-21" value="Pod" style="fillColor=none;strokeColor=#5A6C86;dashed=1;verticalAlign=top;fontStyle=0;fontColor=#5A6C86;" vertex="1" parent="mlOKRHt_Zuj5hbEv2DI5-19">
                    <mxGeometry width="190" height="140" as="geometry"/>
                </mxCell>
                <mxCell id="mlOKRHt_Zuj5hbEv2DI5-22" value="api-container:2.0" style="shape=ext;double=1;rounded=0;whiteSpace=wrap;html=1;fillColor=#dae8fc;strokeColor=#6c8ebf;" vertex="1" parent="SfLSfAhm1QCCM8m_BgMp-0">
                    <mxGeometry x="605.88" y="290" width="120" height="80" as="geometry"/>
                </mxCell>
                <mxCell id="mlOKRHt_Zuj5hbEv2DI5-23" value="80" style="shape=ext;double=1;rounded=0;whiteSpace=wrap;html=1;" vertex="1" parent="SfLSfAhm1QCCM8m_BgMp-0">
                    <mxGeometry x="640.88" y="290" width="50" height="20" as="geometry"/>
                </mxCell>
                <mxCell id="mlOKRHt_Zuj5hbEv2DI5-24" value="" style="group" vertex="1" connectable="0" parent="SfLSfAhm1QCCM8m_BgMp-0">
                    <mxGeometry x="570.88" y="260" width="190" height="140" as="geometry"/>
                </mxCell>
                <mxCell id="mlOKRHt_Zuj5hbEv2DI5-25" value="" style="sketch=0;html=1;dashed=0;whitespace=wrap;fillColor=#2875E2;strokeColor=#ffffff;points=[[0.005,0.63,0],[0.1,0.2,0],[0.9,0.2,0],[0.5,0,0],[0.995,0.63,0],[0.72,0.99,0],[0.5,1,0],[0.28,0.99,0]];shape=mxgraph.kubernetes.icon;prIcon=pod" vertex="1" parent="mlOKRHt_Zuj5hbEv2DI5-24">
                    <mxGeometry width="33.04347826086956" height="26.10169491525424" as="geometry"/>
                </mxCell>
                <mxCell id="mlOKRHt_Zuj5hbEv2DI5-26" value="Pod" style="fillColor=none;strokeColor=#5A6C86;dashed=1;verticalAlign=top;fontStyle=0;fontColor=#5A6C86;" vertex="1" parent="mlOKRHt_Zuj5hbEv2DI5-24">
                    <mxGeometry width="190" height="140" as="geometry"/>
                </mxCell>
                <mxCell id="mlOKRHt_Zuj5hbEv2DI5-27" value="api-container:1.0" style="shape=ext;double=1;rounded=0;whiteSpace=wrap;html=1;fillColor=#C7C7C7;strokeColor=#666666;fontColor=#333333;" vertex="1" parent="SfLSfAhm1QCCM8m_BgMp-0">
                    <mxGeometry x="385.88" y="290" width="120" height="80" as="geometry"/>
                </mxCell>
                <mxCell id="mlOKRHt_Zuj5hbEv2DI5-28" value="80" style="shape=ext;double=1;rounded=0;whiteSpace=wrap;html=1;" vertex="1" parent="SfLSfAhm1QCCM8m_BgMp-0">
                    <mxGeometry x="420.88" y="290" width="50" height="20" as="geometry"/>
                </mxCell>
                <mxCell id="mlOKRHt_Zuj5hbEv2DI5-29" value="" style="group" vertex="1" connectable="0" parent="SfLSfAhm1QCCM8m_BgMp-0">
                    <mxGeometry x="350.88" y="260" width="190" height="140" as="geometry"/>
                </mxCell>
                <mxCell id="mlOKRHt_Zuj5hbEv2DI5-30" value="Pod" style="fillColor=none;strokeColor=#5A6C86;dashed=1;verticalAlign=top;fontStyle=0;fontColor=#5A6C86;" vertex="1" parent="mlOKRHt_Zuj5hbEv2DI5-29">
                    <mxGeometry width="190" height="140" as="geometry"/>
                </mxCell>
                <mxCell id="mlOKRHt_Zuj5hbEv2DI5-31" value="" style="sketch=0;html=1;dashed=0;whitespace=wrap;fillColor=#2875E2;strokeColor=#ffffff;points=[[0.005,0.63,0],[0.1,0.2,0],[0.9,0.2,0],[0.5,0,0],[0.995,0.63,0],[0.72,0.99,0],[0.5,1,0],[0.28,0.99,0]];shape=mxgraph.kubernetes.icon;prIcon=pod" vertex="1" parent="mlOKRHt_Zuj5hbEv2DI5-29">
                    <mxGeometry width="33.04347826086956" height="26.10169491525424" as="geometry"/>
                </mxCell>
                <mxCell id="mlOKRHt_Zuj5hbEv2DI5-42" value="Server" style="points=[[0,0],[0.25,0],[0.5,0],[0.75,0],[1,0],[1,0.25],[1,0.5],[1,0.75],[1,1],[0.75,1],[0.5,1],[0.25,1],[0,1],[0,0.75],[0,0.5],[0,0.25]];outlineConnect=0;html=1;whiteSpace=wrap;fontSize=12;fontStyle=0;container=1;pointerEvents=0;collapsible=0;recursiveResize=0;shape=mxgraph.aws4.group;grIcon=mxgraph.aws4.group_on_premise;verticalAlign=top;align=left;spacingLeft=30;dashed=0;" vertex="1" parent="cHpmKiyiBaThE0fjxowa-1">
                    <mxGeometry x="110" y="620" width="890" height="470" as="geometry"/>
                </mxCell>
                <mxCell id="SfLSfAhm1QCCM8m_BgMp-8" value="api-container:1.0" style="shape=ext;double=1;rounded=0;whiteSpace=wrap;html=1;fillColor=#C7C7C7;strokeColor=#666666;fontColor=#333333;" vertex="1" parent="mlOKRHt_Zuj5hbEv2DI5-42">
                    <mxGeometry x="160.8800000000001" y="110" width="120" height="80" as="geometry"/>
                </mxCell>
                <mxCell id="SfLSfAhm1QCCM8m_BgMp-9" value="80" style="shape=ext;double=1;rounded=0;whiteSpace=wrap;html=1;" vertex="1" parent="mlOKRHt_Zuj5hbEv2DI5-42">
                    <mxGeometry x="195.8800000000001" y="110" width="50" height="20" as="geometry"/>
                </mxCell>
                <mxCell id="SfLSfAhm1QCCM8m_BgMp-10" value="" style="group" vertex="1" connectable="0" parent="mlOKRHt_Zuj5hbEv2DI5-42">
                    <mxGeometry x="125.88" y="80" width="190" height="140" as="geometry"/>
                </mxCell>
                <mxCell id="SfLSfAhm1QCCM8m_BgMp-11" value="Pod" style="fillColor=none;strokeColor=#5A6C86;dashed=1;verticalAlign=top;fontStyle=0;fontColor=#5A6C86;" vertex="1" parent="SfLSfAhm1QCCM8m_BgMp-10">
                    <mxGeometry width="190" height="140" as="geometry"/>
                </mxCell>
                <mxCell id="SfLSfAhm1QCCM8m_BgMp-12" value="" style="sketch=0;html=1;dashed=0;whitespace=wrap;fillColor=#2875E2;strokeColor=#ffffff;points=[[0.005,0.63,0],[0.1,0.2,0],[0.9,0.2,0],[0.5,0,0],[0.995,0.63,0],[0.72,0.99,0],[0.5,1,0],[0.28,0.99,0]];shape=mxgraph.kubernetes.icon;prIcon=pod" vertex="1" parent="SfLSfAhm1QCCM8m_BgMp-10">
                    <mxGeometry width="33.04347826086956" height="26.10169491525424" as="geometry"/>
                </mxCell>
                <mxCell id="SfLSfAhm1QCCM8m_BgMp-7" value="" style="sketch=0;aspect=fixed;html=1;points=[];align=center;image;fontSize=12;image=img/lib/mscae/Kubernetes.svg;" vertex="1" parent="mlOKRHt_Zuj5hbEv2DI5-42">
                    <mxGeometry x="90.87882352941187" y="40.00432432432433" width="27.87162162162162" height="26.756756756756758" as="geometry"/>
                </mxCell>
                <mxCell id="SfLSfAhm1QCCM8m_BgMp-6" value="Deployment" style="fillColor=none;strokeColor=#5A6C86;dashed=1;verticalAlign=top;fontStyle=1;fontColor=#5A6C86;" vertex="1" parent="mlOKRHt_Zuj5hbEv2DI5-42">
                    <mxGeometry x="90" y="40" width="691.76" height="370" as="geometry"/>
                </mxCell>
                <mxCell id="SfLSfAhm1QCCM8m_BgMp-28" value="api-container:2.0" style="shape=ext;double=1;rounded=0;whiteSpace=wrap;html=1;fillColor=#dae8fc;strokeColor=#6c8ebf;" vertex="1" parent="mlOKRHt_Zuj5hbEv2DI5-42">
                    <mxGeometry x="375.8800000000001" y="110" width="120" height="80" as="geometry"/>
                </mxCell>
                <mxCell id="SfLSfAhm1QCCM8m_BgMp-29" value="80" style="shape=ext;double=1;rounded=0;whiteSpace=wrap;html=1;" vertex="1" parent="mlOKRHt_Zuj5hbEv2DI5-42">
                    <mxGeometry x="410.8800000000001" y="110" width="50" height="20" as="geometry"/>
                </mxCell>
                <mxCell id="SfLSfAhm1QCCM8m_BgMp-30" value="" style="group" vertex="1" connectable="0" parent="mlOKRHt_Zuj5hbEv2DI5-42">
                    <mxGeometry x="340.8800000000001" y="80" width="190" height="140" as="geometry"/>
                </mxCell>
                <mxCell id="SfLSfAhm1QCCM8m_BgMp-32" value="" style="sketch=0;html=1;dashed=0;whitespace=wrap;fillColor=#2875E2;strokeColor=#ffffff;points=[[0.005,0.63,0],[0.1,0.2,0],[0.9,0.2,0],[0.5,0,0],[0.995,0.63,0],[0.72,0.99,0],[0.5,1,0],[0.28,0.99,0]];shape=mxgraph.kubernetes.icon;prIcon=pod" vertex="1" parent="SfLSfAhm1QCCM8m_BgMp-30">
                    <mxGeometry width="33.04347826086956" height="26.10169491525424" as="geometry"/>
                </mxCell>
                <mxCell id="SfLSfAhm1QCCM8m_BgMp-31" value="Pod" style="fillColor=none;strokeColor=#5A6C86;dashed=1;verticalAlign=top;fontStyle=0;fontColor=#5A6C86;" vertex="1" parent="SfLSfAhm1QCCM8m_BgMp-30">
                    <mxGeometry width="190" height="140" as="geometry"/>
                </mxCell>
                <mxCell id="SfLSfAhm1QCCM8m_BgMp-38" value="api-container:2.0" style="shape=ext;double=1;rounded=0;whiteSpace=wrap;html=1;fillColor=#dae8fc;strokeColor=#6c8ebf;" vertex="1" parent="mlOKRHt_Zuj5hbEv2DI5-42">
                    <mxGeometry x="375.8800000000001" y="280" width="120" height="80" as="geometry"/>
                </mxCell>
                <mxCell id="SfLSfAhm1QCCM8m_BgMp-39" value="80" style="shape=ext;double=1;rounded=0;whiteSpace=wrap;html=1;" vertex="1" parent="mlOKRHt_Zuj5hbEv2DI5-42">
                    <mxGeometry x="410.8800000000001" y="280" width="50" height="20" as="geometry"/>
                </mxCell>
                <mxCell id="SfLSfAhm1QCCM8m_BgMp-40" value="" style="group" vertex="1" connectable="0" parent="mlOKRHt_Zuj5hbEv2DI5-42">
                    <mxGeometry x="340.8800000000001" y="250" width="190" height="140" as="geometry"/>
                </mxCell>
                <mxCell id="SfLSfAhm1QCCM8m_BgMp-41" value="" style="sketch=0;html=1;dashed=0;whitespace=wrap;fillColor=#2875E2;strokeColor=#ffffff;points=[[0.005,0.63,0],[0.1,0.2,0],[0.9,0.2,0],[0.5,0,0],[0.995,0.63,0],[0.72,0.99,0],[0.5,1,0],[0.28,0.99,0]];shape=mxgraph.kubernetes.icon;prIcon=pod" vertex="1" parent="SfLSfAhm1QCCM8m_BgMp-40">
                    <mxGeometry width="33.04347826086956" height="26.10169491525424" as="geometry"/>
                </mxCell>
                <mxCell id="SfLSfAhm1QCCM8m_BgMp-42" value="Pod" style="fillColor=none;strokeColor=#5A6C86;dashed=1;verticalAlign=top;fontStyle=0;fontColor=#5A6C86;" vertex="1" parent="SfLSfAhm1QCCM8m_BgMp-40">
                    <mxGeometry width="190" height="140" as="geometry"/>
                </mxCell>
                <mxCell id="SfLSfAhm1QCCM8m_BgMp-75" value="api-container:1.0" style="shape=ext;double=1;rounded=0;whiteSpace=wrap;html=1;fillColor=#C7C7C7;strokeColor=#666666;fontColor=#333333;" vertex="1" parent="mlOKRHt_Zuj5hbEv2DI5-42">
                    <mxGeometry x="155.8800000000001" y="280" width="120" height="80" as="geometry"/>
                </mxCell>
                <mxCell id="SfLSfAhm1QCCM8m_BgMp-76" value="80" style="shape=ext;double=1;rounded=0;whiteSpace=wrap;html=1;" vertex="1" parent="mlOKRHt_Zuj5hbEv2DI5-42">
                    <mxGeometry x="190.8800000000001" y="280" width="50" height="20" as="geometry"/>
                </mxCell>
                <mxCell id="SfLSfAhm1QCCM8m_BgMp-77" value="" style="group" vertex="1" connectable="0" parent="mlOKRHt_Zuj5hbEv2DI5-42">
                    <mxGeometry x="120.88000000000011" y="250" width="190" height="140" as="geometry"/>
                </mxCell>
                <mxCell id="SfLSfAhm1QCCM8m_BgMp-78" value="Pod" style="fillColor=none;strokeColor=#5A6C86;dashed=1;verticalAlign=top;fontStyle=0;fontColor=#5A6C86;" vertex="1" parent="SfLSfAhm1QCCM8m_BgMp-77">
                    <mxGeometry width="190" height="140" as="geometry"/>
                </mxCell>
                <mxCell id="SfLSfAhm1QCCM8m_BgMp-79" value="" style="sketch=0;html=1;dashed=0;whitespace=wrap;fillColor=#2875E2;strokeColor=#ffffff;points=[[0.005,0.63,0],[0.1,0.2,0],[0.9,0.2,0],[0.5,0,0],[0.995,0.63,0],[0.72,0.99,0],[0.5,1,0],[0.28,0.99,0]];shape=mxgraph.kubernetes.icon;prIcon=pod" vertex="1" parent="SfLSfAhm1QCCM8m_BgMp-77">
                    <mxGeometry width="33.04347826086956" height="26.10169491525424" as="geometry"/>
                </mxCell>
                <mxCell id="mlOKRHt_Zuj5hbEv2DI5-32" value="api-container:2.0" style="shape=ext;double=1;rounded=0;whiteSpace=wrap;html=1;fillColor=#dae8fc;strokeColor=#6c8ebf;" vertex="1" parent="mlOKRHt_Zuj5hbEv2DI5-42">
                    <mxGeometry x="595.8800000000001" y="110" width="120" height="80" as="geometry"/>
                </mxCell>
                <mxCell id="mlOKRHt_Zuj5hbEv2DI5-33" value="80" style="shape=ext;double=1;rounded=0;whiteSpace=wrap;html=1;" vertex="1" parent="mlOKRHt_Zuj5hbEv2DI5-42">
                    <mxGeometry x="630.8800000000001" y="110" width="50" height="20" as="geometry"/>
                </mxCell>
                <mxCell id="mlOKRHt_Zuj5hbEv2DI5-34" value="" style="group" vertex="1" connectable="0" parent="mlOKRHt_Zuj5hbEv2DI5-42">
                    <mxGeometry x="560.8800000000001" y="80" width="190" height="140" as="geometry"/>
                </mxCell>
                <mxCell id="mlOKRHt_Zuj5hbEv2DI5-35" value="" style="sketch=0;html=1;dashed=0;whitespace=wrap;fillColor=#2875E2;strokeColor=#ffffff;points=[[0.005,0.63,0],[0.1,0.2,0],[0.9,0.2,0],[0.5,0,0],[0.995,0.63,0],[0.72,0.99,0],[0.5,1,0],[0.28,0.99,0]];shape=mxgraph.kubernetes.icon;prIcon=pod" vertex="1" parent="mlOKRHt_Zuj5hbEv2DI5-34">
                    <mxGeometry width="33.04347826086956" height="26.10169491525424" as="geometry"/>
                </mxCell>
                <mxCell id="mlOKRHt_Zuj5hbEv2DI5-36" value="Pod" style="fillColor=none;strokeColor=#5A6C86;dashed=1;verticalAlign=top;fontStyle=0;fontColor=#5A6C86;" vertex="1" parent="mlOKRHt_Zuj5hbEv2DI5-34">
                    <mxGeometry width="190" height="140" as="geometry"/>
                </mxCell>
                <mxCell id="mlOKRHt_Zuj5hbEv2DI5-37" value="api-container:2.0" style="shape=ext;double=1;rounded=0;whiteSpace=wrap;html=1;fillColor=#dae8fc;strokeColor=#6c8ebf;" vertex="1" parent="mlOKRHt_Zuj5hbEv2DI5-42">
                    <mxGeometry x="595.8800000000001" y="280" width="120" height="80" as="geometry"/>
                </mxCell>
                <mxCell id="mlOKRHt_Zuj5hbEv2DI5-38" value="80" style="shape=ext;double=1;rounded=0;whiteSpace=wrap;html=1;" vertex="1" parent="mlOKRHt_Zuj5hbEv2DI5-42">
                    <mxGeometry x="630.8800000000001" y="280" width="50" height="20" as="geometry"/>
                </mxCell>
                <mxCell id="mlOKRHt_Zuj5hbEv2DI5-39" value="" style="group" vertex="1" connectable="0" parent="mlOKRHt_Zuj5hbEv2DI5-42">
                    <mxGeometry x="560.8800000000001" y="250" width="190" height="140" as="geometry"/>
                </mxCell>
                <mxCell id="mlOKRHt_Zuj5hbEv2DI5-40" value="" style="sketch=0;html=1;dashed=0;whitespace=wrap;fillColor=#2875E2;strokeColor=#ffffff;points=[[0.005,0.63,0],[0.1,0.2,0],[0.9,0.2,0],[0.5,0,0],[0.995,0.63,0],[0.72,0.99,0],[0.5,1,0],[0.28,0.99,0]];shape=mxgraph.kubernetes.icon;prIcon=pod" vertex="1" parent="mlOKRHt_Zuj5hbEv2DI5-39">
                    <mxGeometry width="33.04347826086956" height="26.10169491525424" as="geometry"/>
                </mxCell>
                <mxCell id="mlOKRHt_Zuj5hbEv2DI5-41" value="Pod" style="fillColor=none;strokeColor=#5A6C86;dashed=1;verticalAlign=top;fontStyle=0;fontColor=#5A6C86;" vertex="1" parent="mlOKRHt_Zuj5hbEv2DI5-39">
                    <mxGeometry width="190" height="140" as="geometry"/>
                </mxCell>
                <mxCell id="2zIauwDGD12AbH6mAZTr-0" value="Server" style="points=[[0,0],[0.25,0],[0.5,0],[0.75,0],[1,0],[1,0.25],[1,0.5],[1,0.75],[1,1],[0.75,1],[0.5,1],[0.25,1],[0,1],[0,0.75],[0,0.5],[0,0.25]];outlineConnect=0;html=1;whiteSpace=wrap;fontSize=12;fontStyle=0;container=1;pointerEvents=0;collapsible=0;recursiveResize=0;shape=mxgraph.aws4.group;grIcon=mxgraph.aws4.group_on_premise;verticalAlign=top;align=left;spacingLeft=30;dashed=0;" vertex="1" parent="cHpmKiyiBaThE0fjxowa-1">
                    <mxGeometry x="100" y="-460" width="900" height="470" as="geometry"/>
                </mxCell>
                <mxCell id="2zIauwDGD12AbH6mAZTr-1" value="api-container:1.0" style="shape=ext;double=1;rounded=0;whiteSpace=wrap;html=1;fillColor=#fff2cc;strokeColor=#d6b656;" vertex="1" parent="2zIauwDGD12AbH6mAZTr-0">
                    <mxGeometry x="170" y="115" width="120" height="80" as="geometry"/>
                </mxCell>
                <mxCell id="2zIauwDGD12AbH6mAZTr-2" value="80" style="shape=ext;double=1;rounded=0;whiteSpace=wrap;html=1;" vertex="1" parent="2zIauwDGD12AbH6mAZTr-0">
                    <mxGeometry x="205" y="115" width="50" height="20" as="geometry"/>
                </mxCell>
                <mxCell id="2zIauwDGD12AbH6mAZTr-3" value="" style="group" vertex="1" connectable="0" parent="2zIauwDGD12AbH6mAZTr-0">
                    <mxGeometry x="135" y="85" width="440" height="340" as="geometry"/>
                </mxCell>
                <mxCell id="2zIauwDGD12AbH6mAZTr-4" value="Pod" style="fillColor=none;strokeColor=#5A6C86;dashed=1;verticalAlign=top;fontStyle=0;fontColor=#5A6C86;" vertex="1" parent="2zIauwDGD12AbH6mAZTr-3">
                    <mxGeometry width="190" height="140" as="geometry"/>
                </mxCell>
                <mxCell id="2zIauwDGD12AbH6mAZTr-5" value="" style="sketch=0;html=1;dashed=0;whitespace=wrap;fillColor=#2875E2;strokeColor=#ffffff;points=[[0.005,0.63,0],[0.1,0.2,0],[0.9,0.2,0],[0.5,0,0],[0.995,0.63,0],[0.72,0.99,0],[0.5,1,0],[0.28,0.99,0]];shape=mxgraph.kubernetes.icon;prIcon=pod" vertex="1" parent="2zIauwDGD12AbH6mAZTr-3">
                    <mxGeometry width="33.04347826086956" height="26.10169491525424" as="geometry"/>
                </mxCell>
                <mxCell id="2zIauwDGD12AbH6mAZTr-6" value="Deployment" style="fillColor=none;strokeColor=#5A6C86;dashed=1;verticalAlign=top;fontStyle=1;fontColor=#5A6C86;" vertex="1" parent="2zIauwDGD12AbH6mAZTr-3">
                    <mxGeometry x="-35" y="-40" width="475" height="380" as="geometry"/>
                </mxCell>
                <mxCell id="2zIauwDGD12AbH6mAZTr-7" value="" style="sketch=0;aspect=fixed;html=1;points=[];align=center;image;fontSize=12;image=img/lib/mscae/Kubernetes.svg;" vertex="1" parent="2zIauwDGD12AbH6mAZTr-3">
                    <mxGeometry x="-35" y="-40" width="31.25" height="30" as="geometry"/>
                </mxCell>
                <mxCell id="2zIauwDGD12AbH6mAZTr-8" value="api-container:1.0" style="shape=ext;double=1;rounded=0;whiteSpace=wrap;html=1;fillColor=#fff2cc;strokeColor=#d6b656;" vertex="1" parent="2zIauwDGD12AbH6mAZTr-0">
                    <mxGeometry x="385" y="115" width="120" height="80" as="geometry"/>
                </mxCell>
                <mxCell id="2zIauwDGD12AbH6mAZTr-9" value="80" style="shape=ext;double=1;rounded=0;whiteSpace=wrap;html=1;" vertex="1" parent="2zIauwDGD12AbH6mAZTr-0">
                    <mxGeometry x="420" y="115" width="50" height="20" as="geometry"/>
                </mxCell>
                <mxCell id="2zIauwDGD12AbH6mAZTr-10" value="" style="group" vertex="1" connectable="0" parent="2zIauwDGD12AbH6mAZTr-0">
                    <mxGeometry x="350" y="85" width="190" height="140" as="geometry"/>
                </mxCell>
                <mxCell id="2zIauwDGD12AbH6mAZTr-11" value="Pod" style="fillColor=none;strokeColor=#5A6C86;dashed=1;verticalAlign=top;fontStyle=0;fontColor=#5A6C86;" vertex="1" parent="2zIauwDGD12AbH6mAZTr-10">
                    <mxGeometry width="190" height="140" as="geometry"/>
                </mxCell>
                <mxCell id="2zIauwDGD12AbH6mAZTr-12" value="" style="sketch=0;html=1;dashed=0;whitespace=wrap;fillColor=#2875E2;strokeColor=#ffffff;points=[[0.005,0.63,0],[0.1,0.2,0],[0.9,0.2,0],[0.5,0,0],[0.995,0.63,0],[0.72,0.99,0],[0.5,1,0],[0.28,0.99,0]];shape=mxgraph.kubernetes.icon;prIcon=pod" vertex="1" parent="2zIauwDGD12AbH6mAZTr-10">
                    <mxGeometry width="33.04347826086956" height="26.10169491525424" as="geometry"/>
                </mxCell>
                <mxCell id="2zIauwDGD12AbH6mAZTr-13" value="api-container:1.0" style="shape=ext;double=1;rounded=0;whiteSpace=wrap;html=1;fillColor=#fff2cc;strokeColor=#d6b656;" vertex="1" parent="2zIauwDGD12AbH6mAZTr-0">
                    <mxGeometry x="170" y="285" width="120" height="80" as="geometry"/>
                </mxCell>
                <mxCell id="2zIauwDGD12AbH6mAZTr-14" value="80" style="shape=ext;double=1;rounded=0;whiteSpace=wrap;html=1;" vertex="1" parent="2zIauwDGD12AbH6mAZTr-0">
                    <mxGeometry x="205" y="285" width="50" height="20" as="geometry"/>
                </mxCell>
                <mxCell id="2zIauwDGD12AbH6mAZTr-15" value="" style="group" vertex="1" connectable="0" parent="2zIauwDGD12AbH6mAZTr-0">
                    <mxGeometry x="135" y="255" width="190" height="140" as="geometry"/>
                </mxCell>
                <mxCell id="2zIauwDGD12AbH6mAZTr-16" value="Pod" style="fillColor=none;strokeColor=#5A6C86;dashed=1;verticalAlign=top;fontStyle=0;fontColor=#5A6C86;" vertex="1" parent="2zIauwDGD12AbH6mAZTr-15">
                    <mxGeometry width="190" height="140" as="geometry"/>
                </mxCell>
                <mxCell id="2zIauwDGD12AbH6mAZTr-17" value="" style="sketch=0;html=1;dashed=0;whitespace=wrap;fillColor=#2875E2;strokeColor=#ffffff;points=[[0.005,0.63,0],[0.1,0.2,0],[0.9,0.2,0],[0.5,0,0],[0.995,0.63,0],[0.72,0.99,0],[0.5,1,0],[0.28,0.99,0]];shape=mxgraph.kubernetes.icon;prIcon=pod" vertex="1" parent="2zIauwDGD12AbH6mAZTr-15">
                    <mxGeometry width="33.04347826086956" height="26.10169491525424" as="geometry"/>
                </mxCell>
                <mxCell id="2zIauwDGD12AbH6mAZTr-18" value="api-container:1.0" style="shape=ext;double=1;rounded=0;whiteSpace=wrap;html=1;fillColor=#fff2cc;strokeColor=#d6b656;" vertex="1" parent="2zIauwDGD12AbH6mAZTr-0">
                    <mxGeometry x="385" y="285" width="120" height="80" as="geometry"/>
                </mxCell>
                <mxCell id="2zIauwDGD12AbH6mAZTr-19" value="80" style="shape=ext;double=1;rounded=0;whiteSpace=wrap;html=1;" vertex="1" parent="2zIauwDGD12AbH6mAZTr-0">
                    <mxGeometry x="420" y="285" width="50" height="20" as="geometry"/>
                </mxCell>
                <mxCell id="2zIauwDGD12AbH6mAZTr-20" value="" style="group" vertex="1" connectable="0" parent="2zIauwDGD12AbH6mAZTr-0">
                    <mxGeometry x="350" y="255" width="190" height="140" as="geometry"/>
                </mxCell>
                <mxCell id="2zIauwDGD12AbH6mAZTr-21" value="Pod" style="fillColor=none;strokeColor=#5A6C86;dashed=1;verticalAlign=top;fontStyle=0;fontColor=#5A6C86;" vertex="1" parent="2zIauwDGD12AbH6mAZTr-20">
                    <mxGeometry width="190" height="140" as="geometry"/>
                </mxCell>
                <mxCell id="2zIauwDGD12AbH6mAZTr-22" value="" style="sketch=0;html=1;dashed=0;whitespace=wrap;fillColor=#2875E2;strokeColor=#ffffff;points=[[0.005,0.63,0],[0.1,0.2,0],[0.9,0.2,0],[0.5,0,0],[0.995,0.63,0],[0.72,0.99,0],[0.5,1,0],[0.28,0.99,0]];shape=mxgraph.kubernetes.icon;prIcon=pod" vertex="1" parent="2zIauwDGD12AbH6mAZTr-20">
                    <mxGeometry width="33.04347826086956" height="26.10169491525424" as="geometry"/>
                </mxCell>
                <mxCell id="28R24m_s_U6l5RLsEqeO-0" value="Server" style="points=[[0,0],[0.25,0],[0.5,0],[0.75,0],[1,0],[1,0.25],[1,0.5],[1,0.75],[1,1],[0.75,1],[0.5,1],[0.25,1],[0,1],[0,0.75],[0,0.5],[0,0.25]];outlineConnect=0;html=1;whiteSpace=wrap;fontSize=12;fontStyle=0;container=1;pointerEvents=0;collapsible=0;recursiveResize=0;shape=mxgraph.aws4.group;grIcon=mxgraph.aws4.group_on_premise;verticalAlign=top;align=left;spacingLeft=30;dashed=0;" vertex="1" parent="cHpmKiyiBaThE0fjxowa-1">
                    <mxGeometry x="110" y="1160" width="890" height="470" as="geometry"/>
                </mxCell>
                <mxCell id="28R24m_s_U6l5RLsEqeO-6" value="" style="sketch=0;aspect=fixed;html=1;points=[];align=center;image;fontSize=12;image=img/lib/mscae/Kubernetes.svg;" vertex="1" parent="28R24m_s_U6l5RLsEqeO-0">
                    <mxGeometry x="90.87882352941187" y="40.00432432432433" width="27.87162162162162" height="26.756756756756758" as="geometry"/>
                </mxCell>
                <mxCell id="28R24m_s_U6l5RLsEqeO-7" value="Deployment" style="fillColor=none;strokeColor=#5A6C86;dashed=1;verticalAlign=top;fontStyle=1;fontColor=#5A6C86;" vertex="1" parent="28R24m_s_U6l5RLsEqeO-0">
                    <mxGeometry x="90" y="40" width="480" height="370" as="geometry"/>
                </mxCell>
                <mxCell id="28R24m_s_U6l5RLsEqeO-8" value="api-container:2.0" style="shape=ext;double=1;rounded=0;whiteSpace=wrap;html=1;fillColor=#dae8fc;strokeColor=#6c8ebf;" vertex="1" parent="28R24m_s_U6l5RLsEqeO-0">
                    <mxGeometry x="165.0000000000001" y="110" width="120" height="80" as="geometry"/>
                </mxCell>
                <mxCell id="28R24m_s_U6l5RLsEqeO-9" value="80" style="shape=ext;double=1;rounded=0;whiteSpace=wrap;html=1;" vertex="1" parent="28R24m_s_U6l5RLsEqeO-0">
                    <mxGeometry x="200.0000000000001" y="110" width="50" height="20" as="geometry"/>
                </mxCell>
                <mxCell id="28R24m_s_U6l5RLsEqeO-10" value="" style="group" vertex="1" connectable="0" parent="28R24m_s_U6l5RLsEqeO-0">
                    <mxGeometry x="130.0000000000001" y="80" width="190" height="140" as="geometry"/>
                </mxCell>
                <mxCell id="28R24m_s_U6l5RLsEqeO-11" value="" style="sketch=0;html=1;dashed=0;whitespace=wrap;fillColor=#2875E2;strokeColor=#ffffff;points=[[0.005,0.63,0],[0.1,0.2,0],[0.9,0.2,0],[0.5,0,0],[0.995,0.63,0],[0.72,0.99,0],[0.5,1,0],[0.28,0.99,0]];shape=mxgraph.kubernetes.icon;prIcon=pod" vertex="1" parent="28R24m_s_U6l5RLsEqeO-10">
                    <mxGeometry width="33.04347826086956" height="26.10169491525424" as="geometry"/>
                </mxCell>
                <mxCell id="28R24m_s_U6l5RLsEqeO-12" value="Pod" style="fillColor=none;strokeColor=#5A6C86;dashed=1;verticalAlign=top;fontStyle=0;fontColor=#5A6C86;" vertex="1" parent="28R24m_s_U6l5RLsEqeO-10">
                    <mxGeometry width="190" height="140" as="geometry"/>
                </mxCell>
                <mxCell id="28R24m_s_U6l5RLsEqeO-13" value="api-container:2.0" style="shape=ext;double=1;rounded=0;whiteSpace=wrap;html=1;fillColor=#dae8fc;strokeColor=#6c8ebf;" vertex="1" parent="28R24m_s_U6l5RLsEqeO-0">
                    <mxGeometry x="165.0000000000001" y="280" width="120" height="80" as="geometry"/>
                </mxCell>
                <mxCell id="28R24m_s_U6l5RLsEqeO-14" value="80" style="shape=ext;double=1;rounded=0;whiteSpace=wrap;html=1;" vertex="1" parent="28R24m_s_U6l5RLsEqeO-0">
                    <mxGeometry x="200.0000000000001" y="280" width="50" height="20" as="geometry"/>
                </mxCell>
                <mxCell id="28R24m_s_U6l5RLsEqeO-15" value="" style="group" vertex="1" connectable="0" parent="28R24m_s_U6l5RLsEqeO-0">
                    <mxGeometry x="130.0000000000001" y="250" width="190" height="140" as="geometry"/>
                </mxCell>
                <mxCell id="28R24m_s_U6l5RLsEqeO-16" value="" style="sketch=0;html=1;dashed=0;whitespace=wrap;fillColor=#2875E2;strokeColor=#ffffff;points=[[0.005,0.63,0],[0.1,0.2,0],[0.9,0.2,0],[0.5,0,0],[0.995,0.63,0],[0.72,0.99,0],[0.5,1,0],[0.28,0.99,0]];shape=mxgraph.kubernetes.icon;prIcon=pod" vertex="1" parent="28R24m_s_U6l5RLsEqeO-15">
                    <mxGeometry width="33.04347826086956" height="26.10169491525424" as="geometry"/>
                </mxCell>
                <mxCell id="28R24m_s_U6l5RLsEqeO-17" value="Pod" style="fillColor=none;strokeColor=#5A6C86;dashed=1;verticalAlign=top;fontStyle=0;fontColor=#5A6C86;" vertex="1" parent="28R24m_s_U6l5RLsEqeO-15">
                    <mxGeometry width="190" height="140" as="geometry"/>
                </mxCell>
                <mxCell id="28R24m_s_U6l5RLsEqeO-23" value="api-container:2.0" style="shape=ext;double=1;rounded=0;whiteSpace=wrap;html=1;fillColor=#dae8fc;strokeColor=#6c8ebf;" vertex="1" parent="28R24m_s_U6l5RLsEqeO-0">
                    <mxGeometry x="385.0000000000001" y="110" width="120" height="80" as="geometry"/>
                </mxCell>
                <mxCell id="28R24m_s_U6l5RLsEqeO-24" value="80" style="shape=ext;double=1;rounded=0;whiteSpace=wrap;html=1;" vertex="1" parent="28R24m_s_U6l5RLsEqeO-0">
                    <mxGeometry x="420.0000000000001" y="110" width="50" height="20" as="geometry"/>
                </mxCell>
                <mxCell id="28R24m_s_U6l5RLsEqeO-25" value="" style="group" vertex="1" connectable="0" parent="28R24m_s_U6l5RLsEqeO-0">
                    <mxGeometry x="350.0000000000001" y="80" width="190" height="140" as="geometry"/>
                </mxCell>
                <mxCell id="28R24m_s_U6l5RLsEqeO-26" value="" style="sketch=0;html=1;dashed=0;whitespace=wrap;fillColor=#2875E2;strokeColor=#ffffff;points=[[0.005,0.63,0],[0.1,0.2,0],[0.9,0.2,0],[0.5,0,0],[0.995,0.63,0],[0.72,0.99,0],[0.5,1,0],[0.28,0.99,0]];shape=mxgraph.kubernetes.icon;prIcon=pod" vertex="1" parent="28R24m_s_U6l5RLsEqeO-25">
                    <mxGeometry width="33.04347826086956" height="26.10169491525424" as="geometry"/>
                </mxCell>
                <mxCell id="28R24m_s_U6l5RLsEqeO-27" value="Pod" style="fillColor=none;strokeColor=#5A6C86;dashed=1;verticalAlign=top;fontStyle=0;fontColor=#5A6C86;" vertex="1" parent="28R24m_s_U6l5RLsEqeO-25">
                    <mxGeometry width="190" height="140" as="geometry"/>
                </mxCell>
                <mxCell id="28R24m_s_U6l5RLsEqeO-28" value="api-container:2.0" style="shape=ext;double=1;rounded=0;whiteSpace=wrap;html=1;fillColor=#dae8fc;strokeColor=#6c8ebf;" vertex="1" parent="28R24m_s_U6l5RLsEqeO-0">
                    <mxGeometry x="385.0000000000001" y="280" width="120" height="80" as="geometry"/>
                </mxCell>
                <mxCell id="28R24m_s_U6l5RLsEqeO-29" value="80" style="shape=ext;double=1;rounded=0;whiteSpace=wrap;html=1;" vertex="1" parent="28R24m_s_U6l5RLsEqeO-0">
                    <mxGeometry x="420.0000000000001" y="280" width="50" height="20" as="geometry"/>
                </mxCell>
                <mxCell id="28R24m_s_U6l5RLsEqeO-30" value="" style="group" vertex="1" connectable="0" parent="28R24m_s_U6l5RLsEqeO-0">
                    <mxGeometry x="350.0000000000001" y="250" width="190" height="140" as="geometry"/>
                </mxCell>
                <mxCell id="28R24m_s_U6l5RLsEqeO-31" value="" style="sketch=0;html=1;dashed=0;whitespace=wrap;fillColor=#2875E2;strokeColor=#ffffff;points=[[0.005,0.63,0],[0.1,0.2,0],[0.9,0.2,0],[0.5,0,0],[0.995,0.63,0],[0.72,0.99,0],[0.5,1,0],[0.28,0.99,0]];shape=mxgraph.kubernetes.icon;prIcon=pod" vertex="1" parent="28R24m_s_U6l5RLsEqeO-30">
                    <mxGeometry width="33.04347826086956" height="26.10169491525424" as="geometry"/>
                </mxCell>
                <mxCell id="28R24m_s_U6l5RLsEqeO-32" value="Pod" style="fillColor=none;strokeColor=#5A6C86;dashed=1;verticalAlign=top;fontStyle=0;fontColor=#5A6C86;" vertex="1" parent="28R24m_s_U6l5RLsEqeO-30">
                    <mxGeometry width="190" height="140" as="geometry"/>
                </mxCell>
                <mxCell id="28R24m_s_U6l5RLsEqeO-33" value="" style="shape=flexArrow;endArrow=classic;html=1;endWidth=20;endSize=10.73913043478261;width=30.434782608695656;" edge="1" parent="cHpmKiyiBaThE0fjxowa-1">
                    <mxGeometry width="50" height="50" relative="1" as="geometry">
                        <mxPoint x="544.38" y="560" as="sourcePoint"/>
                        <mxPoint x="544.38" y="620" as="targetPoint"/>
                    </mxGeometry>
                </mxCell>
                <mxCell id="28R24m_s_U6l5RLsEqeO-34" value="" style="shape=flexArrow;endArrow=classic;html=1;endWidth=20;endSize=10.73913043478261;width=30.434782608695656;" edge="1" parent="cHpmKiyiBaThE0fjxowa-1" source="2zIauwDGD12AbH6mAZTr-0" target="SfLSfAhm1QCCM8m_BgMp-0">
                    <mxGeometry width="50" height="50" relative="1" as="geometry">
                        <mxPoint x="450" y="10" as="sourcePoint"/>
                        <mxPoint x="450" y="70" as="targetPoint"/>
                    </mxGeometry>
                </mxCell>
                <mxCell id="28R24m_s_U6l5RLsEqeO-35" value="" style="shape=flexArrow;endArrow=classic;html=1;endWidth=20;endSize=10.73913043478261;width=30.434782608695656;" edge="1" parent="cHpmKiyiBaThE0fjxowa-1" target="28R24m_s_U6l5RLsEqeO-0">
                    <mxGeometry width="50" height="50" relative="1" as="geometry">
                        <mxPoint x="544.3700000000001" y="1090" as="sourcePoint"/>
                        <mxPoint x="544.3700000000001" y="1150" as="targetPoint"/>
                    </mxGeometry>
                </mxCell>
            </root>
        </mxGraphModel>
    </diagram>
    <diagram id="wB3Fx3kK5vanRgifkzxi" name="Service">
        <mxGraphModel dx="1226" dy="-171" grid="1" gridSize="10" guides="1" tooltips="1" connect="1" arrows="1" fold="1" page="1" pageScale="1" pageWidth="850" pageHeight="1100" math="0" shadow="0">
            <root>
                <mxCell id="f7TxVsYWSeyQdjKbEXiy-0"/>
                <mxCell id="f7TxVsYWSeyQdjKbEXiy-1" parent="f7TxVsYWSeyQdjKbEXiy-0"/>
                <mxCell id="f7TxVsYWSeyQdjKbEXiy-2" value="Server" style="points=[[0,0],[0.25,0],[0.5,0],[0.75,0],[1,0],[1,0.25],[1,0.5],[1,0.75],[1,1],[0.75,1],[0.5,1],[0.25,1],[0,1],[0,0.75],[0,0.5],[0,0.25]];outlineConnect=0;html=1;whiteSpace=wrap;fontSize=12;fontStyle=0;container=1;pointerEvents=0;collapsible=0;recursiveResize=0;shape=mxgraph.aws4.group;grIcon=mxgraph.aws4.group_on_premise;verticalAlign=top;align=left;spacingLeft=30;dashed=0;" vertex="1" parent="f7TxVsYWSeyQdjKbEXiy-1">
                    <mxGeometry x="90" y="1130" width="890" height="470" as="geometry"/>
                </mxCell>
                <mxCell id="f7TxVsYWSeyQdjKbEXiy-3" value="" style="sketch=0;aspect=fixed;html=1;points=[];align=center;image;fontSize=12;image=img/lib/mscae/Kubernetes.svg;" vertex="1" parent="f7TxVsYWSeyQdjKbEXiy-2">
                    <mxGeometry x="95.87882352941187" y="60.00432432432433" width="27.87162162162162" height="26.756756756756758" as="geometry"/>
                </mxCell>
                <mxCell id="f7TxVsYWSeyQdjKbEXiy-4" value="Deployment" style="fillColor=none;strokeColor=#5A6C86;dashed=1;verticalAlign=top;fontStyle=1;fontColor=#5A6C86;" vertex="1" parent="f7TxVsYWSeyQdjKbEXiy-2">
                    <mxGeometry x="95" y="60" width="480" height="370" as="geometry"/>
                </mxCell>
                <mxCell id="f7TxVsYWSeyQdjKbEXiy-5" value="api-container:2.0" style="shape=ext;double=1;rounded=0;whiteSpace=wrap;html=1;fillColor=#dae8fc;strokeColor=#6c8ebf;" vertex="1" parent="f7TxVsYWSeyQdjKbEXiy-2">
                    <mxGeometry x="170.0000000000001" y="130" width="120" height="80" as="geometry"/>
                </mxCell>
                <mxCell id="f7TxVsYWSeyQdjKbEXiy-6" value="80" style="shape=ext;double=1;rounded=0;whiteSpace=wrap;html=1;" vertex="1" parent="f7TxVsYWSeyQdjKbEXiy-2">
                    <mxGeometry x="205.0000000000001" y="130" width="50" height="20" as="geometry"/>
                </mxCell>
                <mxCell id="f7TxVsYWSeyQdjKbEXiy-7" value="" style="group" vertex="1" connectable="0" parent="f7TxVsYWSeyQdjKbEXiy-2">
                    <mxGeometry x="135.0000000000001" y="100" width="190" height="140" as="geometry"/>
                </mxCell>
                <mxCell id="f7TxVsYWSeyQdjKbEXiy-8" value="" style="sketch=0;html=1;dashed=0;whitespace=wrap;fillColor=#2875E2;strokeColor=#ffffff;points=[[0.005,0.63,0],[0.1,0.2,0],[0.9,0.2,0],[0.5,0,0],[0.995,0.63,0],[0.72,0.99,0],[0.5,1,0],[0.28,0.99,0]];shape=mxgraph.kubernetes.icon;prIcon=pod" vertex="1" parent="f7TxVsYWSeyQdjKbEXiy-7">
                    <mxGeometry width="33.04347826086956" height="26.10169491525424" as="geometry"/>
                </mxCell>
                <mxCell id="f7TxVsYWSeyQdjKbEXiy-9" value="Pod" style="fillColor=none;strokeColor=#5A6C86;dashed=1;verticalAlign=top;fontStyle=0;fontColor=#5A6C86;" vertex="1" parent="f7TxVsYWSeyQdjKbEXiy-7">
                    <mxGeometry width="190" height="140" as="geometry"/>
                </mxCell>
                <mxCell id="f7TxVsYWSeyQdjKbEXiy-10" value="api-container:2.0" style="shape=ext;double=1;rounded=0;whiteSpace=wrap;html=1;fillColor=#dae8fc;strokeColor=#6c8ebf;" vertex="1" parent="f7TxVsYWSeyQdjKbEXiy-2">
                    <mxGeometry x="170.0000000000001" y="300" width="120" height="80" as="geometry"/>
                </mxCell>
                <mxCell id="f7TxVsYWSeyQdjKbEXiy-11" value="80" style="shape=ext;double=1;rounded=0;whiteSpace=wrap;html=1;" vertex="1" parent="f7TxVsYWSeyQdjKbEXiy-2">
                    <mxGeometry x="205.0000000000001" y="300" width="50" height="20" as="geometry"/>
                </mxCell>
                <mxCell id="f7TxVsYWSeyQdjKbEXiy-12" value="" style="group" vertex="1" connectable="0" parent="f7TxVsYWSeyQdjKbEXiy-2">
                    <mxGeometry x="135.0000000000001" y="270" width="190" height="140" as="geometry"/>
                </mxCell>
                <mxCell id="f7TxVsYWSeyQdjKbEXiy-13" value="" style="sketch=0;html=1;dashed=0;whitespace=wrap;fillColor=#2875E2;strokeColor=#ffffff;points=[[0.005,0.63,0],[0.1,0.2,0],[0.9,0.2,0],[0.5,0,0],[0.995,0.63,0],[0.72,0.99,0],[0.5,1,0],[0.28,0.99,0]];shape=mxgraph.kubernetes.icon;prIcon=pod" vertex="1" parent="f7TxVsYWSeyQdjKbEXiy-12">
                    <mxGeometry width="33.04347826086956" height="26.10169491525424" as="geometry"/>
                </mxCell>
                <mxCell id="f7TxVsYWSeyQdjKbEXiy-14" value="Pod" style="fillColor=none;strokeColor=#5A6C86;dashed=1;verticalAlign=top;fontStyle=0;fontColor=#5A6C86;" vertex="1" parent="f7TxVsYWSeyQdjKbEXiy-12">
                    <mxGeometry width="190" height="140" as="geometry"/>
                </mxCell>
                <mxCell id="f7TxVsYWSeyQdjKbEXiy-15" value="api-container:2.0" style="shape=ext;double=1;rounded=0;whiteSpace=wrap;html=1;fillColor=#dae8fc;strokeColor=#6c8ebf;" vertex="1" parent="f7TxVsYWSeyQdjKbEXiy-2">
                    <mxGeometry x="390.0000000000001" y="130" width="120" height="80" as="geometry"/>
                </mxCell>
                <mxCell id="f7TxVsYWSeyQdjKbEXiy-16" value="80" style="shape=ext;double=1;rounded=0;whiteSpace=wrap;html=1;" vertex="1" parent="f7TxVsYWSeyQdjKbEXiy-2">
                    <mxGeometry x="425.0000000000001" y="130" width="50" height="20" as="geometry"/>
                </mxCell>
                <mxCell id="f7TxVsYWSeyQdjKbEXiy-17" value="" style="group" vertex="1" connectable="0" parent="f7TxVsYWSeyQdjKbEXiy-2">
                    <mxGeometry x="355.0000000000001" y="100" width="190" height="140" as="geometry"/>
                </mxCell>
                <mxCell id="f7TxVsYWSeyQdjKbEXiy-18" value="" style="sketch=0;html=1;dashed=0;whitespace=wrap;fillColor=#2875E2;strokeColor=#ffffff;points=[[0.005,0.63,0],[0.1,0.2,0],[0.9,0.2,0],[0.5,0,0],[0.995,0.63,0],[0.72,0.99,0],[0.5,1,0],[0.28,0.99,0]];shape=mxgraph.kubernetes.icon;prIcon=pod" vertex="1" parent="f7TxVsYWSeyQdjKbEXiy-17">
                    <mxGeometry width="33.04347826086956" height="26.10169491525424" as="geometry"/>
                </mxCell>
                <mxCell id="f7TxVsYWSeyQdjKbEXiy-19" value="Pod" style="fillColor=none;strokeColor=#5A6C86;dashed=1;verticalAlign=top;fontStyle=0;fontColor=#5A6C86;" vertex="1" parent="f7TxVsYWSeyQdjKbEXiy-17">
                    <mxGeometry width="190" height="140" as="geometry"/>
                </mxCell>
                <mxCell id="f7TxVsYWSeyQdjKbEXiy-20" value="api-container:2.0" style="shape=ext;double=1;rounded=0;whiteSpace=wrap;html=1;fillColor=#dae8fc;strokeColor=#6c8ebf;" vertex="1" parent="f7TxVsYWSeyQdjKbEXiy-2">
                    <mxGeometry x="390.0000000000001" y="300" width="120" height="80" as="geometry"/>
                </mxCell>
                <mxCell id="f7TxVsYWSeyQdjKbEXiy-21" value="80" style="shape=ext;double=1;rounded=0;whiteSpace=wrap;html=1;" vertex="1" parent="f7TxVsYWSeyQdjKbEXiy-2">
                    <mxGeometry x="425.0000000000001" y="300" width="50" height="20" as="geometry"/>
                </mxCell>
                <mxCell id="f7TxVsYWSeyQdjKbEXiy-22" value="" style="group" vertex="1" connectable="0" parent="f7TxVsYWSeyQdjKbEXiy-2">
                    <mxGeometry x="355.0000000000001" y="270" width="190" height="140" as="geometry"/>
                </mxCell>
                <mxCell id="f7TxVsYWSeyQdjKbEXiy-23" value="" style="sketch=0;html=1;dashed=0;whitespace=wrap;fillColor=#2875E2;strokeColor=#ffffff;points=[[0.005,0.63,0],[0.1,0.2,0],[0.9,0.2,0],[0.5,0,0],[0.995,0.63,0],[0.72,0.99,0],[0.5,1,0],[0.28,0.99,0]];shape=mxgraph.kubernetes.icon;prIcon=pod" vertex="1" parent="f7TxVsYWSeyQdjKbEXiy-22">
                    <mxGeometry width="33.04347826086956" height="26.10169491525424" as="geometry"/>
                </mxCell>
                <mxCell id="f7TxVsYWSeyQdjKbEXiy-24" value="Pod" style="fillColor=none;strokeColor=#5A6C86;dashed=1;verticalAlign=top;fontStyle=0;fontColor=#5A6C86;" vertex="1" parent="f7TxVsYWSeyQdjKbEXiy-22">
                    <mxGeometry width="190" height="140" as="geometry"/>
                </mxCell>
                <mxCell id="HOEq5NRRb-2--_9BWDcf-1" value="30080" style="shape=ext;double=1;rounded=0;whiteSpace=wrap;html=1;" vertex="1" parent="f7TxVsYWSeyQdjKbEXiy-2">
                    <mxGeometry x="305" y="40" width="50" height="20" as="geometry"/>
                </mxCell>
            </root>
        </mxGraphModel>
    </diagram>
</mxfile>